HIERARCHY
ROOT Hips
{
  OFFSET 3.13124 94.3669 -3.18751
  CHANNELS  6 Xposition Yposition Zposition Zrotation Xrotation Yrotation
  JOINT LeftUpLeg
  {
    OFFSET 8.64259 1.95398 -2.38835
    CHANNELS 3 Zrotation Xrotation Yrotation
    JOINT LeftLeg
    {
      OFFSET 43.7702 0 0
      CHANNELS 3 Zrotation Xrotation Yrotation
      JOINT LeftFoot
      {
        OFFSET 40.6238 0 0
        CHANNELS 3 Zrotation Xrotation Yrotation
        JOINT LeftToeBase
        {
          OFFSET 12.7242 0 0
          CHANNELS 3 Zrotation Xrotation Yrotation
          End Site
          {
            OFFSET 0 0 0
          }
        }
      }
    }
  }
  JOINT RightUpLeg
  {
    OFFSET -8.2249 1.95398 -2.59336
    CHANNELS 3 Zrotation Xrotation Yrotation
    JOINT RightLeg
    {
      OFFSET 43.5653 0 0
      CHANNELS 3 Zrotation Xrotation Yrotation
      JOINT RightFoot
      {
        OFFSET 40.6238 0 0
        CHANNELS 3 Zrotation Xrotation Yrotation
        JOINT RightToeBase
        {
          OFFSET 12.7242 0 0
          CHANNELS 3 Zrotation Xrotation Yrotation
          End Site
          {
            OFFSET 0 0 0
          }
        }
      }
    }
  }
  JOINT Spine
  {
    OFFSET 0.165834 0.87714 6.61349
    CHANNELS 3 Zrotation Xrotation Yrotation
    JOINT Spine1
    {
      OFFSET 7.38962 1.71661e-005 0
      CHANNELS 3 Zrotation Xrotation Yrotation
      JOINT Spine2
      {
        OFFSET 11.9445 1.14441e-005 0
        CHANNELS 3 Zrotation Xrotation Yrotation
        JOINT Spine3
        {
          OFFSET 14.7254 4.19617e-005 0
          CHANNELS 3 Zrotation Xrotation Yrotation
          JOINT Spine4
          {
            OFFSET 10.9679 0 0
            CHANNELS 3 Zrotation Xrotation Yrotation
            JOINT RightShoulder
            {
              OFFSET 2.46616 -1.6653 3.69651
              CHANNELS 3 Zrotation Xrotation Yrotation
              JOINT RightArm
              {
                OFFSET 13.0012 0 0
                CHANNELS 3 Zrotation Xrotation Yrotation
                JOINT RightForeArm
                {
                  OFFSET 28.7848 1.52588e-005 0
                  CHANNELS 3 Zrotation Xrotation Yrotation
                  JOINT RightHand
                  {
                    OFFSET 26.5688 1.52588e-005 0
                    CHANNELS 3 Zrotation Xrotation Yrotation
                    End Site
                    {
                      OFFSET 0 0 0
                    }
                  }
                }
              }
            }
            JOINT LeftShoulder
            {
              OFFSET 2.38034 -1.29275 -3.75231
              CHANNELS 3 Zrotation Xrotation Yrotation
              JOINT LeftArm
              {
                OFFSET 16.3182 6.10352e-005 0
                CHANNELS 3 Zrotation Xrotation Yrotation
                JOINT LeftForeArm
                {
                  OFFSET 27.0901 0 0
                  CHANNELS 3 Zrotation Xrotation Yrotation
                  JOINT LeftHand
                  {
                    OFFSET 24.5451 1.52588e-005 0
                    CHANNELS 3 Zrotation Xrotation Yrotation
                    End Site
                    {
                      OFFSET 0 0 0
                    }
                  }
                }
              }
            }
            JOINT Neck
            {
              OFFSET 5.0226 -0.0266342 0
              CHANNELS 3 Zrotation Xrotation Yrotation
              JOINT Head
              {
                OFFSET 6.69363 2.86102e-005 0
                CHANNELS 3 Zrotation Xrotation Yrotation
                End Site
                {
                  OFFSET 0 0 0
                }
              }
            }
          }
        }
      }
    }
  }
}
MOTION
Frames:	16
Frame Time:	0.0333333
-128.96 88.2434 -108.248 -75.6448 -78.6004 -77.2314 -175.502 21.0936 111.891 -22.2897 -27.2437 -1.73771 32.1135 -4.65519 -5.9781 28.7808 6.44638e-006 9.86589e-006 -179.871 24.848 79.1991 -44.1914 4.53866 -0.0954872 54.9969 -5.36675 -3.31679 28.7808 1.46404e-005 2.40402e-005 -2.56483 6.63145 -86.5737 13.6458 -3.49445 6.58254 1.96216 -3.20202 6.72914 -20.5185 -5.30873 5.23288 -0.505881 -5.30873 5.23288 100.634 -28.0625 -85.3185 25.9031 16.1309 17.4618 44.7732 -45.0773 -124.573 7.52163 0.281513 -0.739003 -91.0192 -57.9734 78.9201 -20.0201 28.3834 -58.8089 -43.6431 -3.54803 -89.2769 2.1711 -0.968073 -26.2444 -9.08682 29.8871 25.9839 15.285 30.3152 19.0344 
-130.359 87.8518 -108.101 -72.3571 -79.5054 -74.57 -176.101 22.771 112.23 -23.4089 -26.9003 -1.68545 29.0242 -4.05457 -5.74748 28.7808 6.44638e-006 9.86589e-006 -179.769 25.1641 79.5116 -45.4751 6.24038 -0.0121133 58.4483 -6.12205 -3.66472 28.7808 1.46404e-005 2.40402e-005 -2.59903 6.57447 -86.6155 13.7689 -3.58743 6.65783 2.08509 -3.29161 6.80843 -20.396 -5.41997 5.27689 -0.383321 -5.41997 5.2769 101.609 -30.5013 -83.1971 25.8505 17.3252 14.0703 49.3526 -50.5259 -122.658 4.44604 0.0199021 -3.80441 -91.751 -54.1695 77.0921 -17.6168 25.9588 -59.7708 -46.3481 0.155135 -93.8627 1.45672 -0.803753 -25.4672 -9.31083 27.117 19.474 18.2488 28.3598 18.4079 
-131.506 87.3426 -108.011 -68.5532 -81.2197 -71.1902 -176.631 24.3991 112.442 -24.2465 -25.6202 -1.56032 27.0827 -3.70927 -5.61494 28.7808 6.44638e-006 9.86589e-006 -179.656 25.2288 79.905 -46.9995 9.21928 0.144167 61.7034 -6.14736 -3.52877 28.7808 1.46404e-005 2.40402e-005 -2.55476 6.61291 -86.7556 13.6943 -3.58818 6.43786 2.01157 -3.30201 6.58875 -20.4766 -5.35485 5.06628 -0.463993 -5.35486 5.06629 103.036 -34.7728 -80.3784 26.0677 19.018 8.80828 55.5341 -57.7252 -119.279 0.547614 0.0418406 1.42103 -92.1562 -51.0255 75.7684 -16.1998 21.8086 -59.1596 -47.3245 4.94881 -97.5318 1.47977 -0.841092 -26.4486 -9.62706 25.8969 15.0746 17.7416 27.538 19.0223 
-132.376 86.6754 -107.993 -59.4584 -83.2171 -62.4551 -177.475 26.7731 112.53 -25.7025 -23.8909 -1.39722 26.0421 -3.59453 -5.61682 28.7808 6.44638e-006 9.86589e-006 -179.447 25.8136 80.175 -49.0826 12.3156 0.30288 64.5139 -6.54294 -3.62829 28.7808 1.46404e-005 2.40402e-005 -2.42583 6.70486 -86.9752 13.507 -3.46591 6.00266 1.82616 -3.19888 6.14873 -20.6717 -5.1079 4.68701 -0.659043 -5.10789 4.68704 104.652 -36.1086 -77.3751 25.7785 7.15763 8.71238 41.8654 -57.2091 -132.026 1.11517 -0.0227512 -6.63425 -92.2174 -48.5355 75.0519 -16.2204 15.7009 -56.8702 -46.4215 8.28083 -100.758 -0.434597 -0.500341 -28.1779 -9.70204 25.5689 12.6567 16.3945 27.2595 19.3894 
-133.102 85.9233 -107.936 -35.2616 -85.2478 -38.4076 -178.375 29.5592 112.558 -26.9338 -22.0097 -1.23146 25.5193 -4.02001 -6.1676 28.7808 6.44638e-006 9.86589e-006 -179.271 26.3462 80.534 -51.014 15.7952 0.496025 67.5966 -5.88312 -3.13273 28.7808 1.46404e-005 2.40402e-005 -2.19611 6.81163 -87.32 13.2856 -3.20915 5.29562 1.60723 -2.97333 5.43126 -20.9029 -4.65111 4.08864 -0.890223 -4.6511 4.08864 105.19 -34.1781 -76.2185 25.0399 -3.57298 7.32736 35.9307 -54.7263 -137.099 0.451539 -0.338868 -19.2045 -91.7981 -48.0997 75.5743 -17.0289 8.84683 -54.7124 -43.5772 9.58893 -102.922 0.895075 -0.803793 -28.9919 -10.4747 24.6888 13.0574 15.7987 26.2684 18.3304 
-133.561 85.4045 -107.798 11.8611 -84.914 8.37582 -179.015 32.4768 111.806 -26.717 -20.5482 -1.12234 24.483 -4.65816 -7.04776 28.7808 6.44638e-006 9.86589e-006 -179.103 26.9656 80.5505 -51.94 20.1933 0.781019 70.2235 -3.92798 -2.05291 28.7808 1.46404e-005 2.40402e-005 -1.88969 6.85946 -87.6828 13.1788 -2.79943 4.51634 1.50259 -2.59816 4.63488 -21.0158 -4.02659 3.46761 -1.00313 -4.02658 3.4676 104.311 -33.0944 -77.8457 26.3266 8.58609 7.77725 63.7599 -54.3113 -111.192 43.8779 -9.23927 -27.6549 -91.3035 -48.7307 76.4799 -18.2986 1.34084 -51.7615 -38.7705 9.2907 -104.513 3.08985 -1.29162 -29.1762 -10.8412 22.6188 14.1717 15.8277 24.0168 16.5178 
-133.9 85.0537 -107.359 39.2457 -82.0398 35.6221 -179.787 35.4961 110.903 -27.1417 -19.6129 -1.04996 24.4283 -5.90749 -8.49734 28.7808 6.44638e-006 9.86589e-006 -178.943 27.5692 80.6649 -53.0521 24.2233 1.05554 71.0696 -3.22183 -1.69757 28.7808 1.46404e-005 2.40402e-005 -1.57026 6.86822 -88.0233 13.1508 -2.35026 3.75723 1.47624 -2.18275 3.85686 -21.0477 -3.37037 2.87798 -1.03508 -3.37037 2.87798 102.933 -33.832 -80.5592 26.1843 22.8795 0.908541 102.242 -53.248 -79.8044 42.856 -2.88566 -12.3488 -90.2575 -49.2507 78.1783 -19.5793 -7.3888 -46.6276 -32.441 8.61835 -106.665 4.32151 -1.45495 -27.345 -10.0591 20.1302 14.8692 14.7755 21.1041 14.7847 
-133.883 85.0989 -106.542 51.9491 -78.0337 48.4658 179.263 38.4835 108.968 -29.0812 -19.826 -1.04911 28.0282 -8.10707 -10.2759 28.7808 6.44638e-006 9.86589e-006 -178.916 27.4017 80.8594 -53.2453 28.1986 1.36771 70.1053 -1.88894 -1.04917 28.7808 1.46404e-005 2.40402e-005 -1.3326 6.8015 -88.3074 13.2796 -2.02865 3.16306 1.6062 -1.88755 3.24918 -20.9219 -2.88524 2.4076 -0.90921 -2.88523 2.40761 102.357 -34.6473 -81.676 26.5682 22.7411 -6.34074 90.0717 -52.8899 -89.6396 34.2661 -4.90085 -20.4726 -87.8854 -49.5046 81.8057 -20.3326 -16.7881 -39.5914 -27.4172 8.75551 -109.933 2.59742 -0.923397 -23.3745 -8.1653 18.1149 13.8079 12.2751 18.5651 13.8124 
-133.372 85.588 -105.144 58.1614 -73.8742 55.7903 177.695 42.2627 106.788 -35.2732 -22.8757 -1.19439 34.8035 -9.88351 -10.6774 28.7808 6.44638e-006 9.86589e-006 -179.314 25.7461 82.1042 -51.4288 32.5695 1.79931 68.2448 -0.358957 -0.259238 28.7808 1.46404e-005 2.40402e-005 -0.947413 6.69503 -88.8413 13.4925 -1.56507 2.39621 1.82015 -1.45814 2.46272 -20.7113 -2.21278 1.81525 -0.69865 -2.21277 1.81525 101.066 -34.7509 -84.1436 27.1787 26.8602 -11.786 91.2971 -50.7302 -88.778 30.5161 -4.6485 -21.5787 -84.5334 -50.4514 86.9994 -20.6499 -25.5443 -33.1519 -29.0543 11.9733 -113.739 -0.0713585 -0.374216 -17.6992 -7.33739 15.8926 14.675 11.4106 15.7527 10.427 
-132.395 86.7199 -103.23 61.9865 -68.782 61.9228 176.394 46.6462 104.46 -42.9913 -25.4254 -1.25827 38.9377 -11.1999 -11.0088 28.7808 6.44638e-006 9.86589e-006 -179.975 22.4777 84.5331 -46.877 37.0066 2.36874 65.4479 0.903842 0.477561 28.7808 1.46404e-005 2.40402e-005 -0.444052 6.48259 -89.5917 13.9155 -1.00821 1.58133 2.24394 -0.937646 1.62415 -20.2894 -1.43684 1.20526 -0.276729 -1.43683 1.20527 100.75 -35.6957 -84.7073 27.6637 28.5011 -15.9341 86.8851 -49.524 -92.1889 26.2008 -4.49497 -23.7066 -80.9787 -50.2626 92.3398 -20.5111 -34.7884 -26.1149 -25.6081 12.8989 -118.235 -8.07338 0.121993 -8.6017 -6.70404 13.4145 12.8086 9.42025 13.0698 8.82694 
-130.832 88.1264 -100.611 67.3867 -63.347 70.3559 176.469 48.94 101.098 -49.8332 -29.6542 -1.4716 38.3999 -12.3211 -12.1299 28.7808 6.44638e-006 9.86589e-006 179.716 17.1986 87.6879 -42.2486 40.0837 2.89093 61.543 1.99693 1.25118 28.7808 1.46404e-005 2.40402e-005 0.120085 6.29472 -90.3563 14.2784 -0.318561 0.711915 2.60726 -0.286928 0.725241 -19.9271 -0.517794 0.583266 0.085566 -0.517807 0.58326 101.345 -38.423 -83.5155 27.9835 30.8363 -19.8023 94.9721 -45.9207 -86.4017 33.281 -4.33715 -19.214 -77.9895 -47.957 96.8424 -18.9366 -43.9067 -18.3853 -19.0531 10.4351 -121.338 -21.3235 0.0529723 -5.08761 -7.39241 9.66231 8.34502 7.27602 9.69089 9.42371 
-128.601 89.7077 -97.8294 72.3761 -56.389 78.0131 178.295 48.0907 95.8005 -51.8754 -27.7597 -1.26724 34.0223 -13.6656 -14.4925 28.7808 6.44638e-006 9.86589e-006 179.968 12.6834 90.2687 -40.5439 41.1328 3.13222 56.4331 4.84147 3.37955 28.7808 1.46404e-005 2.40402e-005 0.521 6.12819 -90.8495 14.5992 0.267459 0.0149258 2.9283 0.267866 0.00312855 -19.607 0.250628 0.0946228 0.405613 0.250609 0.0946158 102.273 -42.6346 -81.8293 28.0551 28.2702 -24.4322 65.9775 -43.2402 -106.789 23.9638 -5.19978 -28.4323 -76.0771 -43.3683 99.9488 -16.0261 -49.9305 -11.4914 -15.9599 8.57207 -121.57 -27.966 1.05992 -9.45801 -8.78211 4.84702 2.40438 6.08262 5.40707 10.6559 
-125.773 91.2744 -95.4996 75.8432 -48.2969 83.6502 -179.548 43.7227 89.3271 -48.3413 -30.4066 -1.58024 33.6224 -10.0595 -11.075 28.7808 6.44638e-006 9.86589e-006 -179.649 10.9829 91.99 -42.9699 40.7678 2.98365 47.2027 10.9975 9.0138 28.7808 1.46404e-005 2.40402e-005 0.787815 5.93557 -90.9019 14.9852 0.886384 -0.56891 3.3144 0.860493 -0.607368 -19.2229 1.01639 -0.276174 0.789726 1.0164 -0.276182 103.484 -46.9671 -79.8658 28.5249 28.8137 -28.2652 65.8077 -42.4011 -106.688 23.0841 -4.66833 -26.9688 -75.6584 -36.3721 100.926 -13.1137 -51.9984 -3.06638 -23.019 13.1751 -121.495 -24.0932 0.522219 -7.631 -11.0911 -0.898835 -2.54615 6.31372 0.000383631 10.81 
-122.628 92.4158 -93.9647 78.2732 -40.6967 87.2492 -179.165 36.9207 85.169 -41.1021 -35.3842 -2.25218 39.9399 -2.79283 -3.30446 28.7808 6.44638e-006 9.86589e-006 -179.587 12.8627 92.0822 -50.3626 37.738 2.35954 34.3516 13.4756 14.0058 28.7808 1.46404e-005 2.40402e-005 0.966286 5.91167 -90.5986 15.0573 1.3905 -1.48243 3.38621 1.32392 -1.54219 -19.1514 1.77172 -0.995983 0.861263 1.77173 -0.995986 102.937 -47.6216 -80.7599 27.9733 24.8589 -31.4074 54.5314 -38.8219 -113.709 17.2071 -4.0953 -30.6674 -74.747 -35.3333 102.637 -10.5184 -53.849 0.485332 -18.7382 10.0561 -120.962 -12.3838 0.404386 -9.39162 -9.88247 -5.42514 0.212079 3.88283 -5.01457 8.21271 
-119.995 92.7823 -93.0377 78.812 -33.6808 89.1514 -179.399 32.4801 83.5621 -36.7054 -30.721 -1.93956 45.4699 0.668734 -0.083471 28.7808 6.44638e-006 9.86589e-006 -179.825 16.9749 92.1749 -57.9842 31.785 1.58273 28.7281 13.6725 15.7846 28.7808 1.46404e-005 2.40402e-005 1.24221 5.89606 -90.429 15.124 1.87651 -2.4223 3.45203 1.7681 -2.5025 -19.0833 2.51761 -1.74648 0.929344 2.51763 -1.74648 100.15 -45.2047 -85.3446 26.3481 16.7599 -33.3114 44.9088 -35.1863 -119.364 6.43981 -1.93678 -35.2337 -71.8435 -38.9823 107.426 -13.7389 -56.1904 -4.88329 -23.5015 14.4494 -123.008 2.00706 0.0678872 0.65892 -4.51692 -4.53729 6.98316 -0.327582 -5.09523 7.66286 
-118.353 92.518 -92.3023 80.5791 -27.2937 89.4381 -179.484 28.8247 81.6673 -35.7109 -22.2513 -1.27389 48.9789 2.03126 1.00823 28.7808 6.44638e-006 9.86589e-006 -179.915 21.718 90.0831 -66.5573 22.3924 0.644276 33.7156 8.70963 9.62362 28.7808 1.46404e-005 2.40402e-005 1.61938 6.07121 -90.2518 14.8162 2.56565 -2.92281 3.14428 2.4346 -3.03282 -19.3968 3.32526 -2.01666 0.615892 3.32524 -2.01667 95.2567 -40.5036 -94.1608 24.2982 6.71869 -32.7856 41.7816 -33.9296 -121.18 -0.129576 -0.177048 -38.5894 -67.9948 -42.8617 113.267 -12.7147 -57.0495 -3.11902 -18.3673 11.3226 -124.15 0.0377177 -0.113374 -5.25548 -1.86885 2.28192 11.936 -0.602464 0.93545 13.3433 
